<?xml version="1.0" encoding="UTF-8"?>
<svg width="48" height="48" viewBox="0 0 48 48" fill="none" xmlns="http://www.w3.org/2000/svg">
  <!-- 建筑群 -->
  <rect x="8" y="20" width="8" height="20" fill="#3498db"/>
  <rect x="18" y="15" width="10" height="25" fill="#2ecc71"/>  
  <rect x="30" y="18" width="8" height="22" fill="#e74c3c"/>
  
  <!-- 窗户 -->
  <rect x="10" y="22" width="2" height="2" fill="#ecf0f1"/>
  <rect x="13" y="22" width="2" height="2" fill="#ecf0f1"/>
  <rect x="10" y="26" width="2" height="2" fill="#ecf0f1"/>
  <rect x="13" y="26" width="2" height="2" fill="#ecf0f1"/>
  <rect x="10" y="30" width="2" height="2" fill="#ecf0f1"/>
  <rect x="13" y="30" width="2" height="2" fill="#ecf0f1"/>
  
  <rect x="20" y="18" width="2" height="2" fill="#ecf0f1"/>
  <rect x="24" y="18" width="2" height="2" fill="#ecf0f1"/>
  <rect x="20" y="22" width="2" height="2" fill="#ecf0f1"/>
  <rect x="24" y="22" width="2" height="2" fill="#ecf0f1"/>
  <rect x="20" y="26" width="2" height="2" fill="#ecf0f1"/>
  <rect x="24" y="26" width="2" height="2" fill="#ecf0f1"/>
  <rect x="20" y="30" width="2" height="2" fill="#ecf0f1"/>
  <rect x="24" y="30" width="2" height="2" fill="#ecf0f1"/>
  
  <rect x="32" y="20" width="2" height="2" fill="#ecf0f1"/>
  <rect x="35" y="20" width="2" height="2" fill="#ecf0f1"/>
  <rect x="32" y="24" width="2" height="2" fill="#ecf0f1"/>
  <rect x="35" y="24" width="2" height="2" fill="#ecf0f1"/>
  <rect x="32" y="28" width="2" height="2" fill="#ecf0f1"/>
  <rect x="35" y="28" width="2" height="2" fill="#ecf0f1"/>
  
  <!-- 门 -->
  <rect x="22" y="35" width="4" height="5" fill="#34495e"/>
  
  <!-- 人群 -->
  <circle cx="10" cy="10" r="2" fill="#f39c12"/>
  <circle cx="16" cy="10" r="2" fill="#e74c3c"/>
  <circle cx="24" cy="10" r="2" fill="#9b59b6"/>
  <circle cx="32" cy="10" r="2" fill="#3498db"/>
  <circle cx="38" cy="10" r="2" fill="#27ae60"/>
  
  <!-- 地面 -->
  <rect x="6" y="40" width="36" height="2" fill="#bdc3c7"/>
</svg>
