<?xml version="1.0" encoding="UTF-8"?>
<svg width="48" height="48" viewBox="0 0 48 48" fill="none" xmlns="http://www.w3.org/2000/svg">
  <!-- 大树 -->
  <ellipse cx="24" cy="18" rx="16" ry="12" fill="#27ae60"/>
  <ellipse cx="20" cy="15" rx="10" ry="8" fill="#2ecc71"/>
  <ellipse cx="28" cy="15" rx="8" ry="6" fill="#2ecc71"/>
  <rect x="22" y="24" width="4" height="12" fill="#8b4513"/>
  
  <!-- 小草 -->
  <path d="M10 36 Q12 32 14 36" stroke="#27ae60" stroke-width="2" fill="none"/>
  <path d="M12 36 Q14 32 16 36" stroke="#27ae60" stroke-width="2" fill="none"/>
  <path d="M32 36 Q34 32 36 36" stroke="#27ae60" stroke-width="2" fill="none"/>
  <path d="M34 36 Q36 32 38 36" stroke="#27ae60" stroke-width="2" fill="none"/>
  
  <!-- 花朵 -->
  <circle cx="8" cy="28" r="3" fill="#e74c3c"/>
  <circle cx="6" cy="26" r="1.5" fill="#f39c12"/>
  <circle cx="10" cy="26" r="1.5" fill="#f39c12"/>
  <circle cx="6" cy="30" r="1.5" fill="#f39c12"/>
  <circle cx="10" cy="30" r="1.5" fill="#f39c12"/>
  
  <circle cx="40" cy="28" r="3" fill="#9b59b6"/>
  <circle cx="38" cy="26" r="1.5" fill="#3498db"/>
  <circle cx="42" cy="26" r="1.5" fill="#3498db"/>
  <circle cx="38" cy="30" r="1.5" fill="#3498db"/>
  <circle cx="42" cy="30" r="1.5" fill="#3498db"/>
  
  <!-- 水滴 -->
  <path d="M15 8 Q18 5 21 8 Q18 12 15 8 Z" fill="#3498db"/>
  <path d="M27 8 Q30 5 33 8 Q30 12 27 8 Z" fill="#3498db"/>
  
  <!-- 地面 -->
  <ellipse cx="24" cy="40" rx="20" ry="4" fill="#2ecc71" opacity="0.3"/>
</svg>
