<?xml version="1.0" encoding="UTF-8"?>
<svg width="48" height="48" viewBox="0 0 48 48" fill="none" xmlns="http://www.w3.org/2000/svg">
  <!-- 道路背景 -->
  <rect x="6" y="20" width="36" height="8" fill="#34495e" rx="4"/>
  <line x1="6" y1="24" x2="42" y2="24" stroke="#ecf0f1" stroke-width="1" stroke-dasharray="3,2"/>
  
  <!-- 汽车 -->
  <rect x="28" y="18" width="12" height="6" fill="#3498db" rx="1"/>
  <circle cx="30" cy="26" r="2" fill="#2c3e50"/>
  <circle cx="38" cy="26" r="2" fill="#2c3e50"/>
  
  <!-- 公交车 -->
  <rect x="8" y="16" width="16" height="8" fill="#e74c3c" rx="2"/>
  <rect x="10" y="18" width="3" height="2" fill="#ecf0f1"/>
  <rect x="14" y="18" width="3" height="2" fill="#ecf0f1"/>
  <rect x="18" y="18" width="3" height="2" fill="#ecf0f1"/>
  <circle cx="12" cy="26" r="2" fill="#2c3e50"/>
  <circle cx="20" cy="26" r="2" fill="#2c3e50"/>
  
  <!-- 步行道 -->
  <path d="M6 32 Q12 30 18 32 Q24 34 30 32 Q36 30 42 32" stroke="#27ae60" stroke-width="2" fill="none"/>
  
  <!-- 行人图标 -->
  <circle cx="20" cy="8" r="3" fill="#f39c12"/>
  <line x1="20" y1="11" x2="20" y2="18" stroke="#f39c12" stroke-width="2"/>
  <line x1="18" y1="14" x2="22" y2="14" stroke="#f39c12" stroke-width="2"/>
  <line x1="20" y1="18" x2="18" y2="22" stroke="#f39c12" stroke-width="2"/>
  <line x1="20" y1="18" x2="22" y2="22" stroke="#f39c12" stroke-width="2"/>
</svg>
